<svg id="a" xmlns="http://www.w3.org/2000/svg" width="309.17" height="50.63" viewBox="0 0 309.17 50.63"><path d="M163.84 42.71h3.73v3.73h-3.73v-3.73Zm-72-6.86c.63 1.31.94 2.81.94 4.48s-.31 3.2-.94 4.53c-.63 1.33-1.49 2.39-2.58 3.18-2.18 1.52-4.68 2.28-7.49 2.28h-6.51V30.58h6.51c2.85 0 5.34.72 7.46 2.17 1.11.75 1.98 1.78 2.6 3.1Zm-3.31 4.48c0-3.92-2.47-5.89-7.41-5.89h-1.66v12.03h1.69c4.92 0 7.38-2.05 7.38-6.14Zm7.29 10h14.56v-3.86h-10.37v-4.31h9.89v-3.8h-9.89v-3.92h10.37v-3.86H95.82v19.74Zm26.11 0h4.2v-7.77h8.76v-3.83h-8.76v-4.28h9.41v-3.86h-13.6v19.74Zm86.38-3.61c-1.73 0-3.16-.56-4.31-1.69-1.16-1.13-1.75-2.67-1.75-4.62s.58-3.43 1.75-4.53c1.18-1.13 2.54-1.69 4.08-1.69 1.07 0 2.07.24 2.99.7.92.47 1.67 1.13 2.25 1.97l2.82-2.87c-1.99-2.48-4.61-3.72-7.86-3.72-2.97 0-5.43.94-7.38 2.82-1.97 1.86-2.96 4.33-2.96 7.41s.99 5.49 2.96 7.35c2.01 1.86 4.52 2.79 7.52 2.79 3.32 0 6-1.24 8.03-3.72l-2.79-2.96c-1.35 1.84-3.14 2.76-5.35 2.76ZM150.4 43.2l4.37 7.13h-4.76l-3.89-6.34h-3.35v6.34h-4.2V30.58h8.17c2.22 0 4.02.57 5.41 1.72 1.43 1.15 2.14 2.72 2.14 4.73 0 1.37-.35 2.6-1.04 3.69a6.645 6.645 0 0 1-2.84 2.48Zm-.28-5.94c0-1.88-1.37-2.82-4.11-2.82h-3.24v5.72h3.24c2.74 0 4.11-.97 4.11-2.9Zm83.76-2.82v-3.86h-14.56v19.74h14.56v-3.86h-10.37v-4.31h9.89v-3.8h-9.89v-3.92h10.37Zm-43.18 9.52-7.97-13.38h-5.04v19.74h4.2V37l7.97 13.32h5.01V30.58h-4.17v13.38Zm-26.95-13.38-7.72 19.74h4.34l1.22-3.06 1.71-4.54.4-1.05 2.05-5.4 2.05 5.39.4 1.06 1.69 4.54 1.24 3.06h4.34l-7.72-19.74h-4ZM0 3.94h4.17v19.74H0V3.94Zm21.49 13.38L13.52 3.94H8.48v19.74h4.2V10.36l7.97 13.32h5.01V3.94h-4.17v13.38Zm6.9-9.52h5.66v15.89h4.17V7.79h5.66V3.94H28.39V7.8Zm18.19 15.89h14.56v-3.86H50.77v-4.31h9.89v-3.8h-9.89V7.8h10.37V3.94H46.58v19.74Zm34.76 0h-4.76l-3.89-6.34h-3.35v6.34h-4.2V3.94h8.17c2.22 0 4.02.57 5.41 1.72 1.43 1.15 2.14 2.72 2.14 4.73 0 1.37-.35 2.6-1.04 3.69a6.645 6.645 0 0 1-2.84 2.48l4.37 7.13Zm-4.65-13.07c0-1.88-1.37-2.82-4.11-2.82h-3.24v5.72h3.24c2.74 0 4.11-.97 4.11-2.9Z" fill="#012169"/><path d="m98.66 17.34 2.79 2.96c-2.03 2.48-4.7 3.72-8.03 3.72-3 0-5.51-.93-7.52-2.79-1.97-1.86-2.96-4.31-2.96-7.35s.99-5.55 2.96-7.41c1.95-1.88 4.41-2.82 7.38-2.82 3.25 0 5.87 1.24 7.86 3.72l-2.82 2.87c-.58-.84-1.33-1.5-2.25-1.97-.92-.47-1.92-.7-2.99-.7-1.54 0-2.9.56-4.08 1.69-1.16 1.11-1.75 2.62-1.75 4.54s.58 3.49 1.75 4.62c1.15 1.13 2.58 1.69 4.31 1.69 2.22 0 4-.92 5.35-2.76Zm21.8-10.79c1.97 1.92 2.96 4.34 2.96 7.27s-.99 5.39-2.96 7.32c-1.97 1.92-4.39 2.87-7.27 2.87s-5.26-.96-7.21-2.87c-1.95-1.95-2.93-4.39-2.93-7.32s.98-5.35 2.93-7.27c1.93-1.93 4.34-2.9 7.21-2.9s5.31.97 7.27 2.9Zm-1.3 7.27c0-1.71-.55-3.17-1.66-4.39-1.11-1.22-2.51-1.83-4.2-1.83-1.8 0-3.25.6-4.34 1.8-1.07 1.2-1.61 2.68-1.61 4.42s.54 3.23 1.61 4.45c1.07 1.2 2.52 1.8 4.34 1.8s3.22-.6 4.25-1.8c1.07-1.22 1.61-2.7 1.61-4.45Zm17.1 1.21-5.6-11.07h-4.2V23.7h4.2V12.49l3.75 7.21h3.72l3.77-7.21V23.7h4.17V3.96h-4.17l-5.63 11.07Zm23.74 0-5.6-11.07h-4.2V23.7h4.2V12.49l3.75 7.21h3.72l3.77-7.21V23.7h4.17V3.96h-4.17l-5.63 11.07Zm25.71.06c0 3.4-1.37 5.1-4.11 5.1-1.31 0-2.33-.46-3.04-1.37-.71-.91-1.07-2.14-1.07-3.68V3.96h-4.17v10.98c0 2.91.73 5.15 2.18 6.72 1.46 1.57 3.49 2.35 6.1 2.35s4.64-.78 6.1-2.35 2.18-3.81 2.18-6.72V3.96h-4.17v11.12Zm20.7 2.25-7.97-13.38h-5.04V23.7h4.2V10.38l7.97 13.32h5.01V3.96h-4.17v13.38ZM238.7 3.96h-4.2V23.7h13.21v-3.86h-9.01V3.96Zm11.88 19.74h4.17V3.96h-4.17V23.7Zm7.04-15.89h5.66V23.7h4.17V7.82h5.66V3.96h-15.49v3.86Zm44.9 4-1.94-.31c-1.88-.34-2.82-1.03-2.82-2.08 0-.58.26-1.05.79-1.41.53-.36 1.23-.54 2.11-.54 1.84 0 3.51.76 5.01 2.28l2.82-2.96c-1.99-2.1-4.53-3.15-7.6-3.15-2.01 0-3.73.54-5.15 1.63-1.43 1.07-2.14 2.52-2.14 4.34 0 1.6.54 2.9 1.63 3.9 1.09 1 2.62 1.68 4.59 2.01l2.42.42c1.84.34 2.76 1.03 2.76 2.08 0 .64-.31 1.16-.93 1.55-.62.39-1.46.59-2.51.59-2.25 0-4.11-.95-5.58-2.84l-2.87 2.9c.92 1.15 2.09 2.06 3.52 2.75 1.43.69 2.99 1.03 4.68 1.03 2.35 0 4.24-.55 5.69-1.66 1.45-1.11 2.17-2.56 2.17-4.37 0-3.4-2.22-5.45-6.65-6.17Zm-81.89 8h3.73v-3.73h-3.73v3.73Zm-.08-15.86-7.72 19.74h4.34l1.22-3.06 1.71-4.54.4-1.05 2.05-5.4 2.05 5.39.4 1.06 1.69 4.54 1.24 3.06h4.34l-7.72-19.74h-4Zm64.93-1.15-2.46-2.81-4.52 3.96h-2.69V23.7h14.56v-3.86h-10.36v-4.31h9.89v-3.8h-9.89V7.81h10.36V3.96h-6.21l1.32-1.15Z" fill="#cf0211"/><path fill="#00b5e5" d="M0 36.65h63v7H0zm246.17 0h63v7h-63z"/></svg>